<svg width="27" height="20" viewBox="0 0 27 20" fill="none" xmlns="http://www.w3.org/2000/svg">
<path d="M18.35 10C18.35 15.275 14.3267 19.5 9.425 19.5C4.52334 19.5 0.5 15.275 0.5 10C0.5 4.72499 4.52334 0.5 9.425 0.5C14.3267 0.5 18.35 4.72499 18.35 10Z" fill="black" stroke="black"/>
<path d="M26.3535 9.87917C26.5488 9.68391 26.5488 9.36733 26.3535 9.17207L23.1716 5.99008C22.9763 5.79482 22.6597 5.79482 22.4645 5.99008C22.2692 6.18535 22.2692 6.50193 22.4645 6.69719L25.2929 9.52562L22.4645 12.354C22.2692 12.5493 22.2692 12.8659 22.4645 13.0612C22.6597 13.2564 22.9763 13.2564 23.1716 13.0612L26.3535 9.87917ZM18.525 10.0256H26V9.02562H18.525V10.0256Z" fill="black"/>
<path d="M18.35 10C18.35 15.275 14.3267 19.5 9.425 19.5C4.52334 19.5 0.5 15.275 0.5 10C0.5 4.72499 4.52334 0.5 9.425 0.5C14.3267 0.5 18.35 4.72499 18.35 10Z" fill="black" stroke="black"/>
</svg>
